<svg width="594" height="594" viewBox="0 0 594 594" fill="none" xmlns="http://www.w3.org/2000/svg">
<path d="M573.659 20.0838C566.269 12.5184 557.186 6.81943 547.159 3.45776C537.131 0.0960817 526.449 -0.831884 515.992 0.750505C429.992 14.7505 208.992 77.0838 6.32531 357.417C1.64816 363.883 -0.554097 371.812 0.118745 379.764C0.791588 387.716 4.29488 395.162 9.99198 400.75L192.992 583.75C199.146 590.031 207.533 593.625 216.325 593.75C223.365 593.646 230.214 591.441 235.992 587.417C515.992 384.75 578.325 163.417 592.992 77.7505C594.574 67.294 593.646 56.611 590.285 46.584C586.923 36.5569 581.224 27.4734 573.659 20.0838Z" fill="#5599FF"/>
</svg>
