<svg width="513" height="509" viewBox="0 0 513 509" fill="none" xmlns="http://www.w3.org/2000/svg">
<path d="M292.86 404.386L245.86 451.386C239.668 457.584 232.316 462.501 224.223 465.856C216.129 469.211 207.454 470.938 198.693 470.938C189.932 470.938 181.257 469.211 173.164 465.856C165.071 462.501 157.718 457.584 151.527 451.386L57.1933 357.052C50.9949 350.861 46.0776 343.508 42.7226 335.415C39.3677 327.322 37.6408 318.647 37.6408 309.886C37.6408 301.125 39.3677 292.45 42.7226 284.356C46.0776 276.263 50.9949 268.911 57.1933 262.719L104.193 215.719C107.28 212.57 110.962 210.064 115.024 208.347C119.087 206.631 123.45 205.737 127.86 205.719C132.27 205.737 136.633 206.631 140.695 208.347C144.758 210.064 148.439 212.57 151.527 215.719L292.86 357.052C295.984 360.151 298.464 363.838 300.156 367.9C301.849 371.962 302.72 376.319 302.72 380.719C302.72 385.12 301.849 389.476 300.156 393.538C298.464 397.6 295.984 401.287 292.86 404.386ZM291.527 41.7191C290.517 36.0405 288.051 30.721 284.371 26.2806C280.69 21.8402 275.92 18.4308 270.527 16.3858C226.182 -0.952018 177.666 -4.63011 131.214 5.8244C84.7631 16.2789 42.5005 40.3881 9.85994 75.0525C6.73566 78.1512 4.25585 81.8379 2.56356 85.8999C0.871275 89.9619 0 94.3187 0 98.7191C0 103.12 0.871275 107.476 2.56356 111.538C4.25585 115.6 6.73566 119.287 9.85994 122.386L103.86 216.386C110.248 222.477 118.701 225.93 127.527 226.052H129.86C134.609 225.748 139.237 224.43 143.435 222.188C147.632 219.946 151.3 216.831 154.193 213.052C191.913 163.011 234.45 116.79 281.193 75.0525C285.828 70.9938 289.247 65.7303 291.071 59.8461C292.895 53.962 293.053 47.6875 291.527 41.7191ZM493.527 233.719C491.464 228.431 488.085 223.757 483.71 220.14C479.335 216.523 474.109 214.084 468.527 213.052C462.878 212.009 457.056 212.442 451.625 214.311C446.193 216.18 441.337 219.421 437.527 223.719C395.891 271.027 349.912 314.328 300.193 353.052C296.415 355.945 293.3 359.614 291.058 363.811C288.815 368.008 287.498 372.637 287.193 377.386C286.892 382.105 287.598 386.834 289.265 391.259C290.931 395.685 293.52 399.705 296.86 403.052L392.527 498.719C395.625 501.843 399.312 504.323 403.374 506.016C407.436 507.708 411.793 508.579 416.193 508.579C420.594 508.579 424.951 507.708 429.013 506.016C433.074 504.323 436.761 501.843 439.86 498.719C474.272 465.186 497.794 422.072 507.366 374.987C516.937 327.902 512.115 279.026 493.527 234.719V233.719Z" fill="#5599FF"/>
</svg>
